<svg preserveAspectRatio="none" overflow="visible" style="display: block;" width="40" height="40" viewBox="0 0 40 40" fill="none" xmlns="http://www.w3.org/2000/svg">
<g id="information">
<path id="Vector" d="M21.6667 15H18.3333V11.6667H21.6667M21.6667 28.3333H18.3333V18.3333H21.6667M20 3.33333C17.8113 3.33333 15.644 3.76443 13.6219 4.60201C11.5998 5.43959 9.76253 6.66724 8.21489 8.21489C5.08928 11.3405 3.33333 15.5797 3.33333 20C3.33333 24.4203 5.08928 28.6595 8.21489 31.7851C9.76253 33.3328 11.5998 34.5604 13.6219 35.398C15.644 36.2356 17.8113 36.6667 20 36.6667C24.4203 36.6667 28.6595 34.9107 31.7851 31.7851C34.9107 28.6595 36.6667 24.4203 36.6667 20C36.6667 17.8113 36.2356 15.644 35.398 13.6219C34.5604 11.5998 33.3328 9.76253 31.7851 8.21489C30.2375 6.66724 28.4002 5.43959 26.3781 4.60201C24.356 3.76443 22.1887 3.33333 20 3.33333Z" fill="black"/>
</g>
</svg>
